<?xml version="1.0" encoding="UTF-8"?>
<svg id="Layer_2" data-name="Layer 2" xmlns="http://www.w3.org/2000/svg" viewBox="0 0 223.13 77.18">
  <defs>
    <style>
      .cls-1 {
        fill: #ed1c24;
      }

      .cls-2 {
        fill: #231f20;
      }
    </style>
  </defs>
  <g id="Layer_1-2" data-name="Layer 1">
    <rect class="cls-1" x="119.95" y="7.49" width="13.43" height="13.43" rx="6.71" ry="6.71"/>
    <g>
      <path class="cls-2" d="m33.12,52.65c-1.89,5-6.98,9.06-14.34,9.06C6.42,61.71,0,52.09,0,39.82s6.42-21.99,18.78-21.99c7.36,0,12.46,4.06,14.34,9.15V1.13h11.32v59.45h-5.64c-3.14,0-5.69-2.55-5.69-5.69v-2.24Zm.09-13.68c0-7.55-4.62-12.27-11.04-12.27-7.08,0-10.76,5.19-10.76,13.12s3.68,13.02,10.76,13.02c6.42,0,11.04-4.62,11.04-12.27v-1.6Z"/>
      <path class="cls-2" d="m58.77,46.42c.66,5,4.43,7.55,10.19,7.55,4.15,0,7.55-1.42,7.55-4.43,0-2.83-1.89-4.06-6.04-4.72l-6.6-1.13c-8.87-1.42-13.78-4.72-13.78-12.46s6.7-13.4,17.27-13.4c11.51,0,18.4,5.19,19.16,14.44l-9.34.38c-.75-4.72-3.96-7.08-9.91-7.08-4.06,0-6.7,1.79-6.7,4.62,0,2.26,1.51,3.58,4.53,4.06l7.93,1.32c8.78,1.42,13.97,5.1,13.97,12.93,0,8.49-7.36,13.21-18.12,13.21s-19.16-4.72-19.91-14.91l9.81-.38Z"/>
      <path class="cls-2" d="m119.99,50.76h-16.61c-3.11,0-4.34-1.22-4.34-3.11,0-1.32.66-2.36,1.7-3.02,2.09.82,4.47,1.29,7.06,1.44.22,0,.44.03.66.03.1.01.21.02.31.02.12,0,.24.01.36.01.21,0,.41,0,.62,0,.33,0,.65,0,.98-.02.58-.01,1.16-.04,1.72-.1,9.28-.74,15.86-5.61,16.29-13.14,0-.14.02-.28.02-.43,0-.12.01-.24.01-.37,0-1.77-.37-3.43-1.04-4.91-.22-.49-.48-.96-.76-1.41h.01c-.9-1.48-2.14-2.84-3.62-4.01-.21-.17-.43-.33-.65-.49-.1-.08-.21-.15-.32-.21-3.32-2.07-7.75-3.22-12.5-3.22-10.94,0-18.77,5.38-18.77,14.25,0,1.61.28,3.13.8,4.52.1.27.21.54.33.8.98,2.13,2.57,3.94,4.62,5.34-4.06,1.61-6.7,4.44-6.7,8.21,0,3.4,1.98,6.42,5.76,7.65-4.91.66-8.3,3.68-8.3,7.92,0,7.74,9.81,10.66,21.32,10.66,12.93,0,25.01-4.34,25.01-14.72,0-6.7-4.72-11.7-13.97-11.7Zm-10-26.04c4.34,0,7.26,2.55,7.26,7.36s-2.92,7.36-7.26,7.36-7.17-2.55-7.17-7.36,2.92-7.36,7.17-7.36Zm-1.04,45.58c-6.7,0-11.04-1.7-11.04-5.48,0-3.02,2.45-4.24,5.47-4.24h13.87c3.78,0,6.04,1.04,6.04,3.77,0,4.06-6.04,5.95-14.34,5.95Z"/>
      <path class="cls-2" d="m148.28,60.58h-11.32V18.97h11.32v6.79c2.08-4.72,7.36-7.93,13.59-7.93,11.13,0,15.19,7.55,15.19,16.8v25.95h-11.32v-23.68c0-6.42-2.55-10.1-8.12-10.1s-9.34,4.53-9.34,11.51v22.27Z"/>
      <path class="cls-2" d="m179.59,26.89v-7.93h6.13v-3.49c0-9.72,5.85-15.47,15.19-15.47,7.55,0,12.17,3.58,13.97,10.19l-7.27,2.36c-.94-2.64-2.74-4.44-5.66-4.44-3.49,0-5,2.64-5,6.51v4.34h11.13v7.93h-11.13v33.69h-11.23V26.89h-6.13Z"/>
      <path class="cls-2" d="m223.13,18.97v41.61h-11.32V18.97h11.32Z"/>
    </g>
  </g>
</svg>